<?xml version="1.0" encoding="UTF-8"?>
<svg version="1.1" xmlns="http://www.w3.org/2000/svg" width="250" height="241">
<path d="M0 0 C82.5 0 165 0 250 0 C250 79.53 250 159.06 250 241 C167.5 241 85 241 0 241 C0 161.47 0 81.94 0 0 Z " fill="#F1F1F2" transform="translate(0,0)"/>
<path d="M0 0 C12.54 0 25.08 0 38 0 C35.86034339 1.06982831 33.71732006 2.13366336 31.5546875 3.15625 C21.85013272 8.02267397 13.59971933 15.00061016 9 25 C8.23959428 27.26985894 8.23959428 27.26985894 8 29 C7.34 29 6.68 29 6 29 C4.3022788 38.97459799 3.70135443 48.588128 3.70947266 58.70336914 C3.70347031 60.221271 3.69666093 61.73916984 3.68911743 63.25706482 C3.67163256 67.33550771 3.66676981 71.41386643 3.66548586 75.49234319 C3.66405472 78.04906201 3.65976731 80.60576006 3.65449142 83.16247368 C3.63605555 92.1058066 3.62781348 101.04908034 3.62939453 109.99243164 C3.63059711 118.29273352 3.60945541 126.59277589 3.5779072 134.89301211 C3.55166973 142.05438477 3.54103022 149.21567296 3.54230535 156.37709326 C3.54281239 160.63910852 3.53727173 164.90089216 3.51594925 169.16285896 C3.49643764 173.17107773 3.49652945 177.17884669 3.51098251 181.18708229 C3.51305516 182.64745499 3.50846318 184.10785688 3.4962616 185.56818008 C3.40584178 197.15060414 4.58360206 208.6204379 12 218 C12.71542969 218.98419922 12.71542969 218.98419922 13.4453125 219.98828125 C20.33482684 229.45703589 28.46132467 235.01808076 39 240 C39 240.33 39 240.66 39 241 C26.13 241 13.26 241 0 241 C0 161.47 0 81.94 0 0 Z " fill="#FDFDFD" transform="translate(0,0)"/>
<path d="M0 0 C1.88656962 2.82985443 2.67966861 4.92365323 3.6875 8.125 C8.03312581 20.2512132 17.80820649 29.27010063 29.15234375 34.9921875 C38.41645719 38.27084493 47.7698369 38.2928959 57.48046875 38.2746582 C59.02235153 38.27901324 60.56423215 38.284199 62.10610962 38.29014587 C66.26723789 38.30345982 70.42827492 38.30412324 74.58942032 38.30158257 C78.07341705 38.30050801 81.55739568 38.30540843 85.04138851 38.310188 C93.26425994 38.32125616 101.48708568 38.32173531 109.70996094 38.31567383 C118.17265413 38.30963125 126.63518117 38.32195842 135.09784603 38.3432439 C142.38477857 38.36089332 149.67165838 38.36685613 156.95861149 38.36360615 C161.30158578 38.361799 165.64444145 38.36437279 169.98739624 38.37832069 C174.07182777 38.39094956 178.15600109 38.38890747 182.24042892 38.37590981 C183.73269109 38.37355572 185.22497172 38.3762365 186.71721268 38.38453293 C194.07431523 38.4224637 200.86880876 38.26568711 207.86845398 35.74081707 C210.22132701 34.92307798 212.55164274 34.44364771 215 34 C212.72887653 37.65053215 210.98733939 38.70560761 206.83714294 39.72177124 C199.12888655 41.42573865 191.45489459 41.4522213 183.60571289 41.45166016 C181.98958035 41.46229744 180.37345532 41.47413195 178.75733948 41.48706055 C174.40192153 41.51760702 170.04666785 41.52895594 165.69115376 41.53470278 C162.96257086 41.53907867 160.23402948 41.54746913 157.50546074 41.55720139 C147.96561406 41.59085983 138.42589023 41.60807304 128.88598633 41.61083984 C120.02545004 41.61387571 111.16561083 41.65435734 102.30527693 41.71198809 C94.66835022 41.75989366 87.03165287 41.78057204 79.39457697 41.78063047 C74.84618142 41.78116617 70.298471 41.7925315 65.75023079 41.83180618 C61.47092901 41.8678906 57.19289692 41.86982361 52.91351891 41.84663391 C51.35315043 41.84379453 49.79270438 41.8526628 48.23249054 41.87481308 C37.31155511 42.02011266 30.13833022 40.0757323 21 34 C20.16713502 33.45017267 19.33427004 32.90034534 18.47616673 32.33385658 C14.22736479 29.42369845 11.67082778 26.45137964 9 22 C7.98642786 20.70262766 6.96505394 19.4113267 5.9375 18.125 C1.68915794 12.48922471 -0.53651266 7.15350209 0 0 Z " fill="#D7D8D8" transform="translate(5,200)"/>
<path d="M0 0 C1.19302734 -0.01998047 2.38605469 -0.03996094 3.61523438 -0.06054688 C4.76185547 -0.05990234 5.90847656 -0.05925781 7.08984375 -0.05859375 C8.13906006 -0.06044678 9.18827637 -0.0622998 10.26928711 -0.06420898 C13.77361687 0.5652288 14.95079586 1.60954169 17.0625 4.4375 C17.40862503 7.41769513 17.5330768 9.97461928 17.4375 12.9375 C17.43621094 13.69675781 17.43492188 14.45601562 17.43359375 15.23828125 C17.31963416 22.46838392 17.31963416 22.46838392 15.0625 25.4375 C10.04373485 27.11042172 4.81699987 26.6640162 -0.4375 26.6875 C-1.59121094 26.708125 -2.74492188 26.72875 -3.93359375 26.75 C-5.03832031 26.75515625 -6.14304687 26.7603125 -7.28125 26.765625 C-8.29380859 26.7749707 -9.30636719 26.78431641 -10.34960938 26.79394531 C-12.9375 26.4375 -12.9375 26.4375 -14.76611328 25.20214844 C-16.25636597 22.95714085 -16.32462511 21.55980745 -16.3359375 18.875 C-16.33980469 17.99585937 -16.34367187 17.11671875 -16.34765625 16.2109375 C-16.33605469 15.29570313 -16.32445313 14.38046875 -16.3125 13.4375 C-16.32990234 12.06464844 -16.32990234 12.06464844 -16.34765625 10.6640625 C-16.34378906 9.78492187 -16.33992188 8.90578125 -16.3359375 8 C-16.33086182 6.79537109 -16.33086182 6.79537109 -16.32568359 5.56640625 C-15.9375 3.4375 -15.9375 3.4375 -14.77758789 1.67944336 C-10.67243446 -1.09127649 -4.77427481 -0.02828057 0 0 Z M-11.9375 5.4375 C-12.03731214 8.1148138 -12.07629875 10.76054175 -12.0625 13.4375 C-12.06636719 14.18773438 -12.07023437 14.93796875 -12.07421875 15.7109375 C-12.41425541 19.37356117 -12.41425541 19.37356117 -10.9375 22.4375 C-9.31492456 22.5366657 -7.68810169 22.56829777 -6.0625 22.5703125 C-5.07765625 22.57160156 -4.0928125 22.57289063 -3.078125 22.57421875 C-1.52351563 22.56841797 -1.52351563 22.56841797 0.0625 22.5625 C1.09890625 22.56636719 2.1353125 22.57023437 3.203125 22.57421875 C4.18796875 22.57292969 5.1728125 22.57164062 6.1875 22.5703125 C7.09757812 22.56918457 8.00765625 22.56805664 8.9453125 22.56689453 C11.0477848 22.67310009 11.0477848 22.67310009 12.0625 21.4375 C12.16231214 18.7601862 12.20129875 16.11445825 12.1875 13.4375 C12.19136719 12.68726562 12.19523437 11.93703125 12.19921875 11.1640625 C12.53925541 7.50143883 12.53925541 7.50143883 11.0625 4.4375 C9.43992456 4.3383343 7.81310169 4.30670223 6.1875 4.3046875 C5.20265625 4.30339844 4.2178125 4.30210938 3.203125 4.30078125 C1.64851563 4.30658203 1.64851563 4.30658203 0.0625 4.3125 C-0.97390625 4.30863281 -2.0103125 4.30476563 -3.078125 4.30078125 C-4.06296875 4.30207031 -5.0478125 4.30335937 -6.0625 4.3046875 C-6.97257812 4.30581543 -7.88265625 4.30694336 -8.8203125 4.30810547 C-10.9227848 4.20189991 -10.9227848 4.20189991 -11.9375 5.4375 Z " fill="#17A0DA" transform="translate(99.9375,105.5625)"/>
<path d="M0 0 C2.90794231 0.22368787 3.88031325 0.868244 5.859375 3.046875 C20 23.26446281 20 23.26446281 20 26 C17.72265625 26.2890625 17.72265625 26.2890625 15 26 C13.12109375 24.0234375 13.12109375 24.0234375 11.4375 21.375 C10.84710938 20.46492188 10.25671875 19.55484375 9.6484375 18.6171875 C8.83246094 17.32167969 8.83246094 17.32167969 8 16 C7.19074687 14.83107882 6.37896424 13.66389583 5.5625 12.5 C4 10 4 10 4 8 C1.24263933 8.61930026 -0.53155853 9.37772286 -2.25341797 11.66503906 C-3.96865009 14.53966025 -5.58106738 17.4598865 -7.16210938 20.41015625 C-8.33444173 22.45204537 -9.40390652 24.26729614 -11 26 C-14.31640625 26.4921875 -14.31640625 26.4921875 -17 26 C-13.87159149 20.34917009 -10.41335891 14.98502399 -6.8125 9.625 C-6.26658203 8.80644531 -5.72066406 7.98789063 -5.15820312 7.14453125 C-1.14074248 1.14074248 -1.14074248 1.14074248 0 0 Z " fill="#1EA2DB" transform="translate(184,106)"/>
<path d="M0 0 C2.6328125 -0.53125 2.6328125 -0.53125 6 0 C8.4295527 2.53680743 10.10748985 5.47890248 11.875 8.5 C12.37257813 9.31082031 12.87015625 10.12164062 13.3828125 10.95703125 C14.60841307 12.9604168 15.81257503 14.97383332 17 17 C19.34458433 17.12772506 19.34458433 17.12772506 22 16 C24.5026006 12.84030832 26.27237371 9.1860704 28.16210938 5.63867188 C29.33464591 3.58350154 30.40548066 1.74999793 32 0 C35.31640625 -0.49609375 35.31640625 -0.49609375 38 0 C32.49109375 8.77411889 26.77043936 17.3965884 21 26 C17.54818049 25.74239594 16.2972918 25.33589233 13.96362305 22.69921875 C13.31949463 21.70535156 12.67536621 20.71148437 12.01171875 19.6875 C11.30595703 18.61242187 10.60019531 17.53734375 9.87304688 16.4296875 C9.14441027 15.28653544 8.41589612 14.14330531 7.6875 13 C6.94079 11.85589719 6.19275686 10.71265678 5.44335938 9.5703125 C0 1.20208813 0 1.20208813 0 0 Z " fill="#1FA2DB" transform="translate(45,106)"/>
<path d="M0 0 C10.56 0 21.12 0 32 0 C32 1.32 32 2.64 32 4 C30.71802734 4.09087891 30.71802734 4.09087891 29.41015625 4.18359375 C28.30542969 4.26738281 27.20070312 4.35117188 26.0625 4.4375 C24.96035156 4.51871094 23.85820312 4.59992188 22.72265625 4.68359375 C20.08890097 4.70418084 20.08890097 4.70418084 19 6 C18.84344973 7.48638992 18.74933057 8.97949127 18.68359375 10.47265625 C18.64169922 11.37177734 18.59980469 12.27089844 18.55664062 13.19726562 C18.51732422 14.14279297 18.47800781 15.08832031 18.4375 16.0625 C18.39431641 17.01189453 18.35113281 17.96128906 18.30664062 18.93945312 C18.20020724 21.29281353 18.09818992 23.64628354 18 26 C16.68 26 15.36 26 14 26 C13.97494385 25.39937744 13.9498877 24.79875488 13.92407227 24.17993164 C13.8084472 21.47388563 13.68557064 18.76821717 13.5625 16.0625 C13.52318359 15.11697266 13.48386719 14.17144531 13.44335938 13.19726562 C13.40146484 12.29814453 13.35957031 11.39902344 13.31640625 10.47265625 C13.27974854 9.64000244 13.24309082 8.80734863 13.20532227 7.94946289 C13.20632897 5.99661142 13.20632897 5.99661142 12 5 C9.98405418 4.76572222 7.961526 4.58663876 5.9375 4.4375 C4.83277344 4.35371094 3.72804687 4.26992187 2.58984375 4.18359375 C1.73519531 4.12300781 0.88054687 4.06242187 0 4 C0 2.68 0 1.36 0 0 Z " fill="#149FDA" transform="translate(141,106)"/>
<path d="M0 0 C1.65 0 3.3 0 5 0 C5.33 6.93 5.66 13.86 6 21 C12.6 21.33 19.2 21.66 26 22 C26 23.32 26 24.64 26 26 C22.04172765 26.05785647 18.0835633 26.09354717 14.125 26.125 C12.99707031 26.14175781 11.86914062 26.15851563 10.70703125 26.17578125 C9.09248047 26.18544922 9.09248047 26.18544922 7.4453125 26.1953125 C5.95281982 26.21102295 5.95281982 26.21102295 4.43017578 26.22705078 C2 26 2 26 0 24 C-0.22705078 21.56982422 -0.22705078 21.56982422 -0.1953125 18.5546875 C-0.18886719 17.47832031 -0.18242188 16.40195313 -0.17578125 15.29296875 C-0.15902344 14.16503906 -0.14226562 13.03710938 -0.125 11.875 C-0.11597656 10.73933594 -0.10695313 9.60367188 -0.09765625 8.43359375 C-0.07403098 5.62218701 -0.04109013 2.81119702 0 0 Z " fill="#1FA2DB" transform="translate(121,106)"/>
<path d="M0 0 C0.99 0.33 1.98 0.66 3 1 C-0.60310749 5.15118603 -4.72231306 5.39637939 -10 6 C-15.33764838 6.26356264 -20.66442891 6.25367317 -26.00634766 6.22705078 C-27.60386142 6.2264857 -29.2013757 6.22680512 -30.79888916 6.22793579 C-35.10812315 6.22850651 -39.41724441 6.21679789 -43.72645235 6.20278788 C-48.24010417 6.19023351 -52.75375895 6.18910632 -57.26742554 6.18673706 C-65.80236538 6.18053607 -74.33725362 6.16414404 -82.87217081 6.14403808 C-92.59409681 6.12163597 -102.31602536 6.11067483 -112.03797078 6.10064721 C-132.02534259 6.07977652 -152.01266804 6.04462754 -172 6 C-172 5.67 -172 5.34 -172 5 C-171.18462076 4.99761165 -170.36924152 4.99522329 -169.52915382 4.99276257 C-149.66398285 4.93355575 -129.79893263 4.8579693 -109.9338932 4.76428509 C-100.32719649 4.71937212 -90.72053648 4.6799471 -81.11376953 4.65356445 C-72.73782925 4.63054792 -64.36200554 4.59710912 -55.98615777 4.55129844 C-51.55363716 4.52741546 -47.12123165 4.50865446 -42.68864822 4.50238609 C-38.51073356 4.49631289 -34.33311321 4.47623284 -30.15530777 4.44572449 C-28.62759957 4.43697995 -27.09985286 4.4332142 -25.57212067 4.43499184 C-16.56451529 4.44215929 -8.20437143 4.10218572 0 0 Z " fill="#BFC0C1" transform="translate(217,234)"/>
<path d="M0 0 C1.16337891 0.00966797 2.32675781 0.01933594 3.52539062 0.02929688 C4.74033203 0.05443359 5.95527344 0.07957031 7.20703125 0.10546875 C8.43357422 0.11900391 9.66011719 0.13253906 10.92382812 0.14648438 C13.95616789 0.18188134 16.98763121 0.23126115 20.01953125 0.29296875 C20.01953125 0.95296875 20.01953125 1.61296875 20.01953125 2.29296875 C12.09953125 2.29296875 4.17953125 2.29296875 -3.98046875 2.29296875 C-3.98046875 8.56296875 -3.98046875 14.83296875 -3.98046875 21.29296875 C2.61953125 21.62296875 9.21953125 21.95296875 16.01953125 22.29296875 C16.01953125 22.62296875 16.01953125 22.95296875 16.01953125 23.29296875 C10.07953125 23.29296875 4.13953125 23.29296875 -1.98046875 23.29296875 C-1.98046875 23.95296875 -1.98046875 24.61296875 -1.98046875 25.29296875 C-3.79296875 25.98046875 -3.79296875 25.98046875 -5.98046875 26.29296875 C-8.10436942 24.71789791 -8.89012857 23.78841931 -9.36865234 21.1640625 C-9.37203613 20.36097656 -9.37541992 19.55789062 -9.37890625 18.73046875 C-9.38277344 17.85132812 -9.38664062 16.9721875 -9.390625 16.06640625 C-9.37902344 15.15117188 -9.36742188 14.2359375 -9.35546875 13.29296875 C-9.37287109 11.92011719 -9.37287109 11.92011719 -9.390625 10.51953125 C-9.38675781 9.64039062 -9.38289063 8.76125 -9.37890625 7.85546875 C-9.37383057 6.65083984 -9.37383057 6.65083984 -9.36865234 5.421875 C-8.98046875 3.29296875 -8.98046875 3.29296875 -7.8293457 1.52612305 C-5.17433651 -0.24470112 -3.17042106 -0.04639641 0 0 Z " fill="#2AA6DC" transform="translate(92.98046875,105.70703125)"/>
<path d="M0 0 C1.88656962 2.82985443 2.67966861 4.92365323 3.6875 8.125 C7.7778296 19.53882414 16.80300376 28.58985783 27.5625 34 C29.0349717 34.68132633 30.51179374 35.35376429 32 36 C32 36.66 32 37.32 32 38 C34.31 38.66 36.62 39.32 39 40 C39 40.33 39 40.66 39 41 C29.31690519 40.56964023 20.03137142 34.41046273 13 28 C10.875 25.125 10.875 25.125 9 22 C7.98642786 20.70262766 6.96505394 19.4113267 5.9375 18.125 C1.68915794 12.48922471 -0.53651266 7.15350209 0 0 Z " fill="#DDDEDF" transform="translate(5,200)"/>
<path d="M0 0 C10.56 0 21.12 0 32 0 C32 1.32 32 2.64 32 4 C28.04 4 24.08 4 20 4 C20 3.67 20 3.34 20 3 C17.36 3 14.72 3 12 3 C12 3.33 12 3.66 12 4 C8.04 4 4.08 4 0 4 C0 2.68 0 1.36 0 0 Z " fill="#2BA5DC" transform="translate(141,106)"/>
<path d="M0 0 C1.65 0 3.3 0 5 0 C5 6.93 5 13.86 5 21 C4.67 21 4.34 21 4 21 C4 14.73 4 8.46 4 2 C3.34 2 2.68 2 2 2 C2 9.59 2 17.18 2 25 C1.34 24.67 0.68 24.34 0 24 C0 16.08 0 8.16 0 0 Z " fill="#2EA7DC" transform="translate(121,106)"/>
<path d="M0 0 C0.33 1.32 0.66 2.64 1 4 C0.34 4 -0.32 4 -1 4 C-1.309375 5.0209375 -1.309375 5.0209375 -1.625 6.0625 C-5.13693373 13.56526752 -11.0621228 17.79102116 -18 22 C-18.66 21.67 -19.32 21.34 -20 21 C-19.31035156 20.57332031 -18.62070313 20.14664063 -17.91015625 19.70703125 C-9.75935727 14.28434606 -5.086309 8.23856471 0 0 Z " fill="#D7D8D9" transform="translate(240,212)"/>
<path d="M0 0 C-1.41519715 2.0343459 -2.54982123 2.90410393 -4.98046875 3.421875 C-6.98176954 3.66273952 -8.9909944 3.83532741 -11 4 C-11 3.34 -11 2.68 -11 2 C-9.73392393 1.46770674 -8.46189588 0.94955456 -7.1875 0.4375 C-6.47980469 0.14746094 -5.77210938 -0.14257812 -5.04296875 -0.44140625 C-3 -1 -3 -1 0 0 Z " fill="#D4D5D6" transform="translate(220,235)"/>
</svg>
